<?xml version="1.0" encoding="UTF-8" standalone="no"?>
<svg
   enable-background="new 0 0 3000 3000"
   viewBox="0 0 2698.8418 2700.0001"
   id="male-user-image"
   version="1.1"
   width="2698.8418"
   height="2700"
   xmlns="http://www.w3.org/2000/svg"
   xmlns:svg="http://www.w3.org/2000/svg">
  <defs
     id="defs5">
    <filter
       style="color-interpolation-filters:sRGB"
       id="filter12"
       x="-0.01757538"
       y="-0.029933348"
       width="1.0373477"
       height="1.0482686">
      <feFlood
         result="flood"
         in="SourceGraphic"
         flood-opacity="0.505882"
         flood-color="rgb(0,0,0)"
         id="feFlood11" />
      <feGaussianBlur
         result="blur"
         in="SourceGraphic"
         stdDeviation="20.000000"
         id="feGaussianBlur11" />
      <feOffset
         result="offset"
         in="blur"
         dx="6.000000"
         dy="-30.362537"
         id="feOffset11" />
      <feComposite
         result="comp1"
         operator="in"
         in="flood"
         in2="offset"
         id="feComposite11" />
      <feComposite
         result="comp2"
         operator="over"
         in="SourceGraphic"
         in2="comp1"
         id="feComposite12" />
    </filter>
  </defs>
  <g
     id="g5"
     transform="translate(-81.78089,65.708115)">
    <g
       id="g6">
      <g
         id="g7"
         style="filter:url(#filter12)">
        <path
           id="path2"
           style="fill:#2b91cc;fill-opacity:1;stroke-width:1.50314"
           d="m 815.19801,1599.5782 c -141.09367,0 -278.8832,66.7876 -387.86495,197.0887 -142.83703,192.66 -254.64341,475.453 -359.514304,833.8884 H 2798.9119 c -74.1373,-215.3465 -152.8356,-414.7665 -228.9723,-586.2013 -106.634,-240.0493 -283.9771,-396.5034 -479.0833,-412.3817 -1.379,0 -2.8691,-0.166 -4.248,-0.4752 l -410.8338,-17.1339 h -0.3245 c -220.2363,220.2212 -344.4855,148.8849 -551.4924,-14.4752 l -0.2115,-0.3098 z" />
        <path
           id="path3"
           d="m 1050.0802,325.27585 c -8.4809,0 -129.68043,197.13895 -129.68043,197.13895 l -38.77816,352.28613 c -157.14371,114.32603 41.61346,250.87097 41.61346,250.87097 35.24173,182.238 120.10033,291.2839 208.74773,356.6002 v 86.0207 c 0,146.324 118.6149,264.9389 264.939,264.9389 146.3241,0 264.939,-118.6267 264.939,-264.9389 v -78.9174 c 92.2338,-64.3919 182.26,-174.5654 218.8361,-363.7035 0,0 198.7553,-136.54494 41.5881,-250.87097 L 1883.5068,522.4148 c 0,0 -121.1995,-197.13895 -129.6804,-197.13895 -8.4808,0 -351.8732,67.47013 -351.8732,67.47013 0,1e-5 -343.3923,-67.47013 -351.873,-67.47013 z"
           style="fill:#f7c19b;fill-opacity:1;stroke-width:1.18118" />
        <path
           fill="#37424c"
           d="m 1936.3181,572.6858 c -29.0924,108.71558 5.2562,192.22482 -14.0206,302.00343 l -22.466,2.2088 C 1908.2887,662.69153 1791.3286,539.42384 1791.3286,539.42384 1658.3989,592.44689 1501.1133,439.6498 1441.8773,509.17389 1282.1349,696.674 1126.7155,528.65151 1100.7178,477.89632 1103.529,644.19427 948.41683,641.27676 948.41683,641.27676 L 903.17774,874.83097 H 881.64487 L 821.14497,622.89764 C 702.6847,193.59875 1038.7887,218.12 1038.7887,218.12 c 0,0 323.489,-431.08247 676.035,-44.42408 0,-0.0118 329.2768,-3.74433 221.4944,398.98988 z"
           id="path5"
           style="stroke-width:1.18118" />
      </g>
    </g>
  </g>
</svg>
